<?xml version="1.0" standalone="no"?>
<svg xmlns="http://www.w3.org/2000/svg" viewBox="0 0 118 63" width="118" height="63"><g fill="#cb7777" color="#cb7777" transform="translate(44.487 0) scale(0.5849057) "><svg width="48.0" height="53.0" x="0.0" y="0.0" viewBox="0 0 48 53"><path fill="currentColor" fill-rule="evenodd" d="M37.438 36.432c-1.614 1.086-2.725.974-3.506.532a38.361 38.361 0 0 1 9.177-9.947c-.351 2.954-2.689 7.41-5.67 9.415zm-26.876 0c-2.982-2.004-5.32-6.46-5.67-9.415a38.36 38.36 0 0 1 9.176 9.947c-.781.442-1.892.554-3.506-.532zm34.317-14.22l-1.436.955a41.329 41.329 0 0 0-11.44 11.386c-.204-.704-.076-1.343.197-2.01.641-1.559 2.25-3.393 4.114-5.518 1.574-1.795 3.405-3.882 5.136-6.357l.001.001c.086-.119.167-.238.246-.357a39.007 39.007 0 0 0 2.249-3.69C46.674 11.508 48 6.071 48 0h-2.945c0 5.402-1.166 9.814-2.86 13.508a31.88 31.88 0 0 0-.833-1.84c-.858-1.792-1.744-3.646-1.744-6.022h-2.945c0 3.044 1.126 5.4 2.032 7.293 1.183 2.474 1.735 3.824.62 5.617-1.16 1.709-2.388 3.233-3.571 4.622-.349-1.304-.996-2.543-1.677-3.845-1.04-1.99-2.117-4.05-2.117-6.44h-2.945c0 3.114 1.302 5.606 2.452 7.805 1.515 2.897 2.244 4.506.872 6.423-1.259 1.504-2.287 2.902-2.863 4.304-.885 2.155-.64 4.132.752 6.015a40.845 40.845 0 0 0-3.96 9.941L24 49.064l-2.268-1.683a40.84 40.84 0 0 0-3.96-9.94c1.393-1.884 1.637-3.86.752-6.016-.576-1.402-1.604-2.8-2.863-4.304-1.372-1.917-.643-3.525.872-6.423 1.15-2.2 2.452-4.691 2.452-7.804H16.04c0 2.39-1.076 4.448-2.117 6.44-.68 1.301-1.328 2.54-1.677 3.844-1.183-1.389-2.41-2.913-3.572-4.622-1.114-1.793-.562-3.143.621-5.617.906-1.893 2.032-4.249 2.032-7.292H8.382c0 2.375-.886 4.229-1.744 6.022a31.777 31.777 0 0 0-.832 1.84C4.11 9.813 2.946 5.401 2.946 0H0c0 6.07 1.326 11.508 4.054 16.622a38.962 38.962 0 0 0 2.249 3.69c.078.119.16.238.246.357 1.732 2.474 3.563 4.561 5.137 6.356 1.864 2.125 3.473 3.96 4.114 5.519.273.666.4 1.305.196 2.009a41.332 41.332 0 0 0-11.44-11.386l-1.435-.956-.719 1.568c-.888 1.937-.561 4.873.899 8.054 1.357 2.958 3.457 5.59 5.617 7.043 2.33 1.567 4.666 1.768 6.635.63a38.21 38.21 0 0 1 3.444 9.085l.125.52L24 52.732l4.878-3.62.125-.52a38.213 38.213 0 0 1 3.444-9.086c1.969 1.139 4.304.938 6.634-.629 2.161-1.452 4.261-4.085 5.618-7.043 1.46-3.18 1.787-6.117.898-8.054l-.718-1.568z"></path></svg></g><line x1="45.328528301886806" y1="37" x2="71.71947169811321" y2="37" stroke="#302e50" stroke-linecap="round"></line><path fill="#302e50" fill-rule="nonzero" d="M3.43 15.34L3.43 15.34L3.55 12.22Q1.97 12.14 1.09 11.46Q0.22 10.78 0.22 9.86Q0.22 8.95 1.09 8.28Q1.97 7.61 3.55 7.37L3.55 7.37Q3.34 3.70 3.34 3.19L3.34 3.19Q3.34 0.94 7.70 0.94L7.70 0.94Q10.78 0.94 12.47 2.20Q14.16 3.46 14.16 5.33Q14.16 7.20 12.29 8.81L12.29 8.81Q15.48 10.56 15.48 13.46L15.48 13.46Q15.48 15.36 14.30 16.81Q13.13 18.26 11.26 18.96Q9.38 19.66 7.49 19.66L7.49 19.66Q5.38 19.66 3.62 19.14Q1.87 18.62 0.94 17.93Q0 17.23 0 16.76Q0 16.30 0.24 16.04Q0.48 15.79 0.82 15.79L0.82 15.79Q0.82 15.79 0.92 15.79Q1.03 15.79 1.57 16.12Q2.11 16.44 2.80 16.87Q3.48 17.30 4.60 17.64Q5.71 17.98 6.82 17.98L6.82 17.98Q6.89 17.98 6.96 17.98L6.96 17.98Q9.82 17.98 11.69 16.73Q13.56 15.48 13.56 13.51L13.56 13.51Q13.56 12.38 12.89 11.42Q12.22 10.46 11.06 9.89L11.06 9.89Q8.59 11.71 5.28 12.14L5.28 12.14L5.38 15.22Q5.38 15.31 5.38 15.38L5.38 15.38Q5.38 16.01 4.94 16.27L4.94 16.27Q4.68 16.44 4.42 16.44L4.42 16.44L3.89 16.27Q3.43 15.98 3.43 15.34ZM5.23 3.17L5.23 3.17Q5.23 4.01 5.28 7.22L5.28 7.22Q8.18 7.22 10.78 8.14L10.78 8.14Q12.38 6.91 12.38 5.45Q12.38 3.98 11.18 3.30Q9.98 2.62 8.20 2.62Q6.41 2.62 5.23 3.17ZM5.23 8.86L5.23 8.86L5.23 10.51Q6.29 10.46 7.57 10.09Q8.86 9.72 9.58 9.24L9.58 9.24Q8.26 8.81 5.90 8.81L5.90 8.81Q5.47 8.81 5.23 8.86ZM3.58 10.61L3.58 10.61L3.58 8.98Q1.87 9.17 1.87 9.77L1.87 9.77Q1.87 10.56 3.58 10.61ZM19.56 1.90L19.56 1.90Q20.54 1.90 20.54 3.05L20.54 3.05Q20.54 3.58 20.20 4.04Q19.85 4.51 19.37 4.51L19.37 4.51Q18.36 4.51 18.36 3.29L18.36 3.29Q18.36 2.71 18.71 2.30Q19.06 1.90 19.56 1.90ZM20.35 8.26L20.35 8.26L20.23 13.30L20.35 18.34Q20.35 19.54 19.44 19.54Q18.53 19.54 18.53 18.34L18.53 18.34L18.65 13.30L18.53 8.26Q18.53 7.06 19.44 7.06Q20.35 7.06 20.35 8.26ZM34.25 13.03L34.25 13.03Q34.25 15.65 32.74 17.59Q31.22 19.54 28.85 19.54L28.85 19.54Q27.07 19.54 25.73 18.31L25.73 18.31Q25.73 19.54 24.82 19.54L24.82 19.54Q23.71 19.54 23.71 17.89Q23.71 16.25 24.19 13.10L24.19 13.10Q24.19 11.47 23.98 6.95Q23.76 2.42 23.76 2.06Q23.76 1.70 24.01 1.37Q24.26 1.03 24.54 1.03Q24.82 1.03 25.06 1.15L25.06 1.15Q25.63 1.42 25.63 2.09L25.63 2.09Q25.63 2.18 25.63 2.26L25.63 2.26L25.63 9.84Q26.28 8.59 27.38 7.82Q28.49 7.06 29.88 7.06Q31.27 7.06 32.30 8.02L32.30 8.02Q34.25 9.79 34.25 13.03ZM25.58 12.89L25.58 12.89L25.70 16.58Q27.12 17.98 28.70 17.98Q30.29 17.98 31.42 16.56Q32.54 15.14 32.54 13.14Q32.54 11.14 31.80 9.88Q31.06 8.62 29.74 8.62Q28.42 8.62 27.30 9.79Q26.18 10.97 25.58 12.89ZM38.98 2.26L38.98 2.26L38.86 10.30L38.98 18.34Q38.98 19.54 38.06 19.54Q37.15 19.54 37.15 18.34L37.15 18.34L37.27 10.30L37.15 2.26Q37.15 1.06 38.06 1.06Q38.98 1.06 38.98 2.26ZM43.56 1.90L43.56 1.90Q44.54 1.90 44.54 3.05L44.54 3.05Q44.54 3.58 44.20 4.04Q43.85 4.51 43.37 4.51L43.37 4.51Q42.36 4.51 42.36 3.29L42.36 3.29Q42.36 2.71 42.71 2.30Q43.06 1.90 43.56 1.90ZM44.35 8.26L44.35 8.26L44.23 13.30L44.35 18.34Q44.35 19.54 43.44 19.54Q42.53 19.54 42.53 18.34L42.53 18.34L42.65 13.30L42.53 8.26Q42.53 7.06 43.44 7.06Q44.35 7.06 44.35 8.26ZM48.94 13.32Q48.94 15.31 50.04 16.70Q51.14 18.10 52.81 18.10Q54.48 18.10 55.64 16.69Q56.81 15.29 56.81 13.30Q56.81 11.30 55.69 9.90Q54.58 8.50 52.93 8.50Q51.29 8.50 50.09 9.91L50.09 9.91Q48.94 11.33 48.94 13.32ZM48.82 17.82Q47.23 15.98 47.23 13.32Q47.23 10.66 48.84 8.80Q50.45 6.94 52.90 6.94Q55.34 6.94 56.93 8.77Q58.51 10.61 58.51 13.28Q58.51 15.96 56.89 17.81Q55.27 19.66 52.84 19.66Q50.40 19.66 48.82 17.82ZM65.57 18.62Q65.57 18.89 65.29 19.21Q65.02 19.54 64.57 19.54Q64.13 19.54 63.88 19.21Q63.62 18.89 63.61 18.62Q63.60 18.36 63.60 18.10Q63.60 17.83 63.65 16.28Q63.70 14.74 63.70 10.30Q63.70 5.86 63.96 4.32L63.96 4.32Q62.69 4.22 61.15 3.77L61.15 3.77Q58.32 2.90 58.32 1.90L58.32 1.90Q58.30 1.34 58.80 1.08L58.80 1.08Q59.04 0.96 59.27 0.96Q59.50 0.96 59.74 1.15L59.74 1.15Q60.10 1.34 60.36 1.54L60.36 1.54Q61.30 2.18 64.32 2.64L64.32 2.64Q64.94 1.37 66.26 0.68Q67.58 0 69.08 0Q70.58 0 71.40 0.67L71.40 0.67Q72.26 1.32 72.26 2.20Q72.26 3.07 71.28 3.82Q70.30 4.56 67.80 4.56L67.80 4.56Q66.43 4.56 65.66 4.49L65.66 4.49Q65.42 5.21 65.42 9.31Q65.42 13.42 65.50 15.89Q65.57 18.36 65.57 18.62ZM68.90 1.68L68.90 1.68Q66.89 1.68 66.07 2.83L66.07 2.83Q66.70 2.95 67.44 2.95Q68.18 2.95 69.32 2.74Q70.46 2.52 70.46 2.18L70.46 2.18Q70.46 1.68 68.90 1.68ZM78.53 7.94L78.53 7.94Q80.28 7.10 81.79 7.10Q83.30 7.10 83.93 7.70L83.93 7.70Q84.65 8.23 84.65 9.02L84.65 9.02Q84.65 9.65 84.24 10.13L84.24 10.13Q83.35 11.09 81.48 11.09L81.48 11.09Q80.71 11.09 79.78 10.74Q78.84 10.39 78.17 9.89L78.17 9.89Q76.13 11.28 76.13 13.66L76.13 13.66Q76.13 15.26 77.54 16.62Q78.96 17.98 81.40 17.98Q83.83 17.98 85.15 16.94Q86.47 15.91 86.83 15.91L86.83 15.91Q87.50 15.91 87.50 16.54L87.50 16.54Q87.50 17.06 86.74 17.78Q85.97 18.50 84.52 19.08Q83.06 19.66 81.53 19.66L81.53 19.66Q78.14 19.66 76.15 17.88L76.15 17.88Q74.21 16.08 74.21 13.87L74.21 13.87Q74.21 10.66 77.02 8.81L77.02 8.81Q75.70 7.46 75.70 5.42Q75.70 3.38 77.30 2.16L77.30 2.16Q78.94 0.94 80.98 0.94Q83.02 0.94 84.55 1.69Q86.09 2.45 86.09 3.36L86.09 3.36Q86.09 3.94 85.61 4.13L85.61 4.13Q85.46 4.15 85.19 4.15Q84.91 4.15 84.36 3.79L84.36 3.79Q82.80 2.62 81.23 2.62Q79.66 2.62 78.62 3.36L78.62 3.36Q77.47 4.08 77.47 5.58Q77.47 7.08 78.53 7.94ZM79.75 8.90L79.75 8.90L79.49 9.02Q80.33 9.65 81.60 9.65Q82.87 9.65 82.87 9.05L82.87 9.05Q82.87 8.54 81.70 8.54Q80.52 8.54 79.75 8.90ZM96.91 0.94L96.91 0.94Q99.58 0.94 101.28 2.42Q102.98 3.91 102.98 5.90L102.98 5.90Q102.98 7.46 102 8.48Q101.02 9.50 99.67 9.50Q98.33 9.50 97.42 8.64L97.42 8.64Q96.50 7.73 96.50 6.68Q96.50 5.64 96.96 4.94Q97.42 4.25 98.06 4.25L98.06 4.25Q98.42 4.25 98.66 4.45Q98.90 4.66 98.90 4.96Q98.90 5.26 98.57 5.72Q98.23 6.19 98.23 6.71Q98.23 7.22 98.64 7.57Q99.05 7.92 99.71 7.92Q100.37 7.92 100.81 7.40Q101.26 6.89 101.26 6.02L101.26 6.02Q101.26 4.75 100.10 3.70L100.10 3.70Q99 2.62 96.91 2.62L96.91 2.62Q94.34 2.62 92.69 4.88Q91.03 7.15 91.03 10.22Q91.03 13.30 92.76 15.64Q94.49 17.98 97.13 17.98L97.13 17.98Q98.30 17.98 99.32 17.66Q100.34 17.35 100.87 16.92L100.87 16.92Q102.14 15.86 102.42 15.86Q102.70 15.86 102.89 16.04Q103.08 16.22 103.08 16.49L103.08 16.49Q103.08 17.42 101.29 18.54Q99.50 19.66 97.10 19.66L97.10 19.66Q93.65 19.66 91.37 16.94L91.37 16.94Q89.09 14.18 89.09 10.26Q89.09 6.34 91.32 3.64Q93.55 0.94 96.91 0.94ZM115.44 13.49L115.44 13.49Q115.44 15.24 115.69 16.40Q115.94 17.57 116.33 17.71L116.33 17.71Q116.47 17.78 116.68 17.81Q116.88 17.83 116.96 17.88Q117.05 17.93 117.05 18.07L117.05 18.07Q117.05 18.74 116.69 19.14Q116.33 19.54 115.64 19.54Q114.96 19.54 114.58 18.66Q114.19 17.78 114.19 16.37L114.19 16.37Q113.54 17.76 112.39 18.65Q111.24 19.54 109.79 19.54Q108.34 19.54 107.30 18.58L107.30 18.58Q105.38 16.80 105.38 13.56L105.38 13.56Q105.38 10.94 106.90 9Q108.41 7.06 110.78 7.06L110.78 7.06Q112.58 7.06 113.90 8.28L113.90 8.28Q113.90 7.06 114.82 7.06L114.82 7.06Q115.92 7.06 115.92 8.70Q115.92 10.34 115.44 13.49ZM114.05 13.70L114.05 13.70L113.93 10.01Q112.51 8.62 110.93 8.62Q109.34 8.62 108.22 10.03Q107.09 11.45 107.09 13.45Q107.09 15.46 107.83 16.72Q108.58 17.98 109.90 17.98Q111.22 17.98 112.33 16.80Q113.45 15.62 114.05 13.70Z" transform="translate(0, 43)"></path></svg>